<svg aria-hidden="true" style="position: absolute; width: 0; height: 0; overflow: hidden;" version="1.1" xmlns="http://www.w3.org/2000/svg" xmlns:xlink="http://www.w3.org/1999/xlink">
<defs>
<symbol id="icon-online" viewBox="0 0 32 32">
<svg width="8" height="8" viewBox="0 0 8 8" fill="none" xmlns="http://www.w3.org/2000/svg">
  <circle cx="4" cy="4" r="4" fill="#38CD3E" style="fill:#38CD3E;fill:color(display-p3 0.2211 0.8042 0.2445);fill-opacity:1;" />
</svg>
</symbol>
<symbol id="icon-hart" viewBox="0 0 32 32">
<path   style="fill: var()" d="M16 12.472l-1.788-3.578c-0.444-0.886-1.214-2.16-2.304-3.19-1.072-1.014-2.356-1.704-3.908-1.704-3.352 0-6 2.652-6 5.84 0 2.422 1.108 4.132 3.736 6.74 0.674 0.668 1.442 1.39 2.292 2.186 2.216 2.080 4.972 4.668 7.972 8.128 3-3.46 5.756-6.048 7.972-8.128 0.85-0.796 1.62-1.52 2.292-2.186 2.628-2.608 3.736-4.318 3.736-6.74 0-3.188-2.648-5.84-6-5.84-1.554 0-2.836 0.69-3.908 1.704-1.090 1.030-1.86 2.304-2.304 3.19l-1.788 3.578zM16.784 29.056c-0.096 0.114-0.216 0.206-0.352 0.269s-0.283 0.095-0.432 0.095-0.297-0.033-0.432-0.095c-0.135-0.063-0.255-0.155-0.352-0.269-3.202-3.804-6.1-6.524-8.486-8.762-4.13-3.878-6.73-6.316-6.73-10.454 0-4.33 3.58-7.84 8-7.84 3.2 0 5.438 2.1 6.808 4.016 0.52 0.73 0.916 1.432 1.192 1.984 0.346-0.691 0.745-1.354 1.192-1.984 1.37-1.918 3.608-4.016 6.808-4.016 4.42 0 8 3.51 8 7.84 0 4.138-2.6 6.576-6.73 10.454-2.386 2.24-5.284 4.962-8.486 8.762z"></path>
</symbol>
<symbol id="icon-star" viewBox="0 0 32 32">
<path style="fill: var();" d="M15.116 2.676c0.375-0.711 1.394-0.711 1.769 0l3.777 7.158c0.145 0.274 0.408 0.466 0.714 0.519l7.975 1.38c0.792 0.137 1.107 1.106 0.547 1.682l-5.641 5.804c-0.216 0.222-0.317 0.532-0.273 0.839l1.152 8.010c0.114 0.796-0.71 1.395-1.431 1.040l-7.263-3.571c-0.278-0.137-0.604-0.137-0.882 0l-7.262 3.571c-0.722 0.355-1.546-0.244-1.431-1.040l1.152-8.010c0.044-0.307-0.057-0.617-0.273-0.839l-5.64-5.804c-0.56-0.577-0.246-1.545 0.547-1.682l7.974-1.38c0.306-0.053 0.569-0.244 0.714-0.519l3.776-7.158z"></path>
</symbol>
<symbol id="icon-login" viewBox="0 0 20 20" >
<path d="M12.5 2.5H13.5C14.9001 2.5 15.6002 2.5 16.135 2.77248C16.6054 3.01217 16.9878 3.39462 17.2275 3.86502C17.5 4.3998 17.5 5.09987 17.5 6.5V13.5C17.5 14.9001 17.5 15.6002 17.2275 16.135C16.9878 16.6054 16.6054 16.9878 16.135 17.2275C15.6002 17.5 14.9001 17.5 13.5 17.5H12.5" stroke="#F4C550" style="stroke:#F4C550;stroke:color(display-p3 0.9569 0.7725 0.3137);stroke-opacity:1;" stroke-width="2" stroke-linecap="round" stroke-linejoin="round"/>
<path d="M8.33333 5.83325L12.5 9.99992M12.5 9.99992L8.33333 14.1666M12.5 9.99992L2.5 9.99992" stroke="#F4C550" style="stroke:#F4C550;stroke:color(display-p3 0.9569 0.7725 0.3137);stroke-opacity:1;" stroke-width="2" stroke-linecap="round" stroke-linejoin="round"/>
</symbol>
<symbol id="icon-book" viewBox="0 0 32 32">
<svg width="32" height="30" viewBox="0 0 16 16" fill="none" xmlns="http://www.w3.org/2000/svg">
  <path  d="M14.6667 4.13333C14.6667 3.3866 14.6667 3.01323 14.5213 2.72801C14.3935 2.47713 14.1895 2.27316 13.9387 2.14532C13.6534 2 13.2801 2 12.5333 2H12.2667C10.7732 2 10.0265 2 9.45603 2.29065C8.95426 2.54631 8.54631 2.95426 8.29065 3.45603C8 4.02646 8 4.77319 8 6.26667V14L8.0667 13.8999C8.5298 13.2053 8.76135 12.858 9.06727 12.6065C9.33809 12.3839 9.65016 12.2169 9.9856 12.1151C10.3645 12 10.7819 12 11.6168 12H12.5333C13.2801 12 13.6534 12 13.9387 11.8547C14.1895 11.7268 14.3935 11.5229 14.5213 11.272C14.6667 10.9868 14.6667 10.6134 14.6667 9.86667V4.13333Z" stroke="black" style="stroke:black;stroke-opacity:1;" stroke-width="1.5" stroke-linecap="round" stroke-linejoin="round" />
  <path  d="M1.33331 4.13333C1.33331 3.3866 1.33331 3.01323 1.47864 2.72801C1.60647 2.47713 1.81044 2.27316 2.06133 2.14532C2.34654 2 2.71991 2 3.46665 2H3.73331C5.22679 2 5.97352 2 6.54395 2.29065C7.04572 2.54631 7.45367 2.95426 7.70933 3.45603C7.99998 4.02646 7.99998 4.77319 7.99998 6.26667V14L7.93328 13.8999C7.47018 13.2053 7.23863 12.858 6.93271 12.6065C6.66188 12.3839 6.34982 12.2169 6.01438 12.1151C5.63548 12 5.21805 12 4.3832 12H3.46665C2.71991 12 2.34654 12 2.06133 11.8547C1.81044 11.7268 1.60647 11.5229 1.47864 11.272C1.33331 10.9868 1.33331 10.6134 1.33331 9.86667V4.13333Z" stroke="black" style="stroke:black;stroke-opacity:1;" stroke-width="1.5" stroke-linecap="round" stroke-linejoin="round" />
</svg>
</symbol>
  <symbol id="line" viewBox="0 0 1312 2">
    <path d="M0 1H1312" stroke="#DADDE1" />
  </symbol>
    <symbol id="divider" viewBox="0 0 1312 2">
  <path fill="#f2f4f7" style="fill: var(--rating, #f2f4f7)" d="M0 3H85" stroke="#E44848" stroke-width="5" />
  </symbol>
</defs>
</svg>


